<svg width="22" height="20" viewBox="0 0 22 20" fill="none" xmlns="http://www.w3.org/2000/svg">
<g opacity="0.3">
<path d="M1.95418 4.04091C1.95418 3.14199 2.68374 2.41243 3.58266 2.41243H10.4223C10.6814 2.41243 10.9299 2.30949 11.1132 2.12625C11.2964 1.94301 11.3994 1.69448 11.3994 1.43534C11.3994 1.1762 11.2964 0.927674 11.1132 0.744434C10.9299 0.561195 10.6814 0.458252 10.4223 0.458252H3.58266C2.63248 0.458252 1.72121 0.83571 1.04934 1.50759C0.377458 2.17947 0 3.09073 0 4.04091V16.4174C0 17.3675 0.377458 18.2788 1.04934 18.9507C1.72121 19.6226 2.63248 20 3.58266 20H15.9591C16.9093 20 17.8206 19.6226 18.4924 18.9507C19.1643 18.2788 19.5418 17.3675 19.5418 16.4174V9.57774C19.5418 9.3186 19.4388 9.07008 19.2556 8.88684C19.0723 8.7036 18.8238 8.60065 18.5647 8.60065C18.3055 8.60065 18.057 8.7036 17.8738 8.88684C17.6905 9.07008 17.5876 9.3186 17.5876 9.57774V16.4174C17.5876 17.3163 16.858 18.0458 15.9591 18.0458H3.58266C2.68374 18.0458 1.95418 17.3163 1.95418 16.4174V4.04091Z" fill="#08092B"/>
<path d="M4.58864 15.6807L6.23275 11.5704C6.4948 10.9157 6.88704 10.3209 7.38572 9.82211L16.401 0.809447C16.9193 0.291167 17.6222 0 18.3552 0C19.0881 0 19.7911 0.291167 20.3093 0.809447C20.8276 1.32773 21.1188 2.03066 21.1188 2.76362C21.1188 3.49658 20.8276 4.19952 20.3093 4.7178L11.2941 13.7305C10.7951 14.2294 10.1997 14.6229 9.54443 14.8847L5.43545 16.5288C5.31707 16.5762 5.18739 16.5878 5.06249 16.5622C4.93758 16.5366 4.82294 16.4749 4.73278 16.3847C4.64262 16.2945 4.5809 16.1799 4.55528 16.055C4.52966 15.9301 4.54126 15.8004 4.58864 15.682V15.6807Z" fill="#08092B"/>
</g>
</svg>
