<svg width="24" height="29" viewBox="0 0 24 29" fill="none" xmlns="http://www.w3.org/2000/svg">
<path opacity="0.3" d="M9.01033 28.9222C10.1278 29.2623 11.0147 28.4253 11.3043 27.6175C11.4704 27.1546 11.6216 26.7257 11.764 26.3232C12.3295 24.7228 12.7465 23.5437 13.3161 22.357C15.113 18.6101 17.407 15.6779 21.6951 13.6639C23.332 12.895 24.3831 11.0281 23.8684 9.13557L23.0316 6.05976C22.7965 5.19489 22.3396 4.41014 21.7083 3.78693C21.0769 3.16371 20.2942 2.72473 19.4412 2.5155L9.90065 0.176722C8.31594 -0.211901 6.64566 0.0459614 5.24347 0.89571C3.84128 1.74546 2.81725 3.12038 2.38821 4.72936L0.127497 13.208C-0.490234 15.5259 1.21446 17.8106 3.56196 17.8106H6.97948C6.49533 19.5039 6.12375 21.579 6.13866 23.4667C6.14816 24.6388 6.30683 25.8041 6.72927 26.7729C7.16256 27.7653 7.89082 28.5828 9.01033 28.9222Z" fill="#08092B"/>
</svg>
