<svg width="58" height="58" viewBox="0 0 58 58" fill="none" xmlns="http://www.w3.org/2000/svg">
<path d="M58 29C58 45.0163 45.0163 58 29 58C12.9837 58 0 45.0163 0 29C0 12.9837 12.9837 0 29 0C45.0163 0 58 12.9837 58 29Z" fill="#0C71BE"/>
<path d="M39.5939 25.5885L29.7417 16.818C29.3038 16.4891 28.7564 16.4891 28.3186 16.818L18.4663 25.5885C18.0285 26.027 17.919 26.6848 18.3569 27.1234C18.7948 27.5619 19.4516 27.6715 19.8894 27.233L20.2178 26.7945V37.3191C20.2178 37.9769 20.6557 38.4154 21.3125 38.4154H36.6382C37.295 38.4154 37.7329 37.9769 37.7329 37.3191V26.7945L38.0613 27.1234C38.4992 27.5619 39.156 27.4523 39.5939 27.0137C40.0317 26.6848 40.0317 25.9174 39.5939 25.5885ZM28.9754 26.3559C30.6174 26.3559 31.931 27.6715 31.931 29.316C31.931 30.9605 30.6174 32.2761 28.9754 32.2761C27.3333 32.2761 26.0197 30.9605 26.0197 29.316C26.0197 27.6715 27.3333 26.3559 28.9754 26.3559ZM23.5019 36.2228C23.5019 36.1132 23.5019 36.1132 23.6114 36.0035C26.0197 33.0435 30.3985 32.4953 33.3541 34.9072C33.792 35.2361 34.1204 35.565 34.4488 36.0035C34.4488 36.0035 34.4488 36.1132 34.5583 36.2228H23.5019Z" fill="white"/>
</svg>
