<svg width="21" height="21" viewBox="0 0 21 21" fill="none" xmlns="http://www.w3.org/2000/svg">
<path opacity="0.3" fill-rule="evenodd" clip-rule="evenodd" d="M10.5 0C4.70085 0 0 4.70085 0 10.5C0 16.2991 4.70085 21 10.5 21C16.2991 21 21 16.2991 21 10.5C21 4.70085 16.2991 0 10.5 0ZM10.5 7.35C10.2215 7.35 9.95445 7.46062 9.75754 7.65754C9.56062 7.85445 9.45 8.12152 9.45 8.4C9.45 8.67848 9.33937 8.94555 9.14246 9.14246C8.94555 9.33937 8.67848 9.45 8.4 9.45C8.12152 9.45 7.85445 9.33937 7.65754 9.14246C7.46062 8.94555 7.35 8.67848 7.35 8.4C7.35022 7.84405 7.49758 7.29806 7.7771 6.81749C8.05662 6.33692 8.45835 5.93888 8.94149 5.66382C9.42463 5.38875 9.97196 5.24646 10.5279 5.25138C11.0838 5.2563 11.6285 5.40827 12.1067 5.69184C12.5849 5.97542 12.9795 6.3805 13.2505 6.86594C13.5215 7.35139 13.6591 7.8999 13.6495 8.45577C13.6399 9.01164 13.4833 9.55506 13.1957 10.0308C12.9081 10.5066 12.4997 10.8978 12.012 11.1646C11.8616 11.2417 11.7256 11.3439 11.6098 11.467C11.585 11.4932 11.5647 11.5234 11.55 11.5563V12.075C11.55 12.3535 11.4394 12.6205 11.2425 12.8175C11.0455 13.0144 10.7785 13.125 10.5 13.125C10.2215 13.125 9.95445 13.0144 9.75754 12.8175C9.56062 12.6205 9.45 12.3535 9.45 12.075V11.55C9.45 10.941 9.71565 10.4506 10.0159 10.101C10.311 9.7545 10.6774 9.5004 11.0029 9.3219C11.2078 9.21019 11.3697 9.03341 11.4629 8.81947C11.5562 8.60553 11.5755 8.36663 11.5178 8.1405C11.4601 7.91436 11.3287 7.71389 11.1444 7.57074C10.9601 7.42759 10.7334 7.34992 10.5 7.35ZM11.5489 11.5615V11.5573V11.5626V11.5615ZM10.5 13.65C10.2215 13.65 9.95445 13.7606 9.75754 13.9575C9.56062 14.1545 9.45 14.4215 9.45 14.7C9.45 14.9785 9.56062 15.2455 9.75754 15.4425C9.95445 15.6394 10.2215 15.75 10.5 15.75H10.5105C10.789 15.75 11.056 15.6394 11.253 15.4425C11.4499 15.2455 11.5605 14.9785 11.5605 14.7C11.5605 14.4215 11.4499 14.1545 11.253 13.9575C11.056 13.7606 10.789 13.65 10.5105 13.65H10.5Z" fill="#08092B"/>
</svg>
