<svg width="58" height="58" viewBox="0 0 58 58" fill="none" xmlns="http://www.w3.org/2000/svg">
<path d="M58 29C58 45.0163 45.0163 58 29 58C12.9837 58 0 45.0163 0 29C0 12.9837 12.9837 0 29 0C45.0163 0 58 12.9837 58 29Z" fill="#0C71BE"/>
<path d="M39.5939 25.5888L29.7417 16.8182C29.3038 16.4893 28.7564 16.4893 28.3186 16.8182L18.4663 25.5888C18.0285 26.0273 17.919 26.6851 18.3569 27.1236C18.7948 27.5621 19.4516 27.6718 19.8894 27.2332L20.2178 26.7947V37.3194C20.2178 37.9772 20.6557 38.4157 21.3125 38.4157H36.6382C37.295 38.4157 37.7329 37.9772 37.7329 37.3194V26.7947L38.0613 27.1236C38.4992 27.5621 39.156 27.4525 39.5939 27.014C40.0317 26.6851 40.0317 25.9177 39.5939 25.5888ZM28.9754 26.3562C30.6174 26.3562 31.931 27.6718 31.931 29.3162C31.931 30.9607 30.6174 32.2763 28.9754 32.2763C27.3333 32.2763 26.0197 30.9607 26.0197 29.3162C26.0197 27.6718 27.3333 26.3562 28.9754 26.3562ZM23.5019 36.223C23.5019 36.1134 23.5019 36.1134 23.6114 36.0038C26.0197 33.0437 30.3985 32.4956 33.3541 34.9075C33.792 35.2364 34.1204 35.5653 34.4488 36.0038C34.4488 36.0038 34.4488 36.1134 34.5583 36.223H23.5019Z" fill="white"/>
</svg>
