<svg width="58" height="58" viewBox="0 0 58 58" fill="none" xmlns="http://www.w3.org/2000/svg">
<path d="M58 29C58 45.0163 45.0163 58 29 58C12.9837 58 0 45.0163 0 29C0 12.9837 12.9837 0 29 0C45.0163 0 58 12.9837 58 29Z" fill="#0C71BE"/>
<path d="M21.1915 24.7881C20.5626 24.9635 20.0071 25.3484 19.6109 25.8832C19.2148 26.418 19 27.073 19 27.7467V31.0885C19 31.9009 19.312 32.6801 19.8674 33.2546C20.4228 33.829 21.1761 34.1518 21.9615 34.1518H24.6538C24.8681 34.1518 25.0735 34.0638 25.225 33.9071C25.3764 33.7504 25.4615 33.5379 25.4615 33.3163V25.5189C25.4615 25.2973 25.3764 25.0848 25.225 24.9281C25.0735 24.7714 24.8681 24.6834 24.6538 24.6834H22.8392C23.3012 21.932 26.0097 19.6708 29.5 19.6708C32.9903 19.6708 35.6988 21.932 36.1608 24.6834H34.3462C34.1319 24.6834 33.9265 24.7714 33.775 24.9281C33.6236 25.0848 33.5385 25.2973 33.5385 25.5189V33.3163C33.5385 33.7775 33.9003 34.1518 34.3462 34.1518H36.1371C35.9551 34.9447 35.5198 35.651 34.9017 36.1563C34.2835 36.6617 33.5187 36.9366 32.7308 36.9366H31.4977C31.3103 36.4573 30.9675 36.0604 30.5281 35.8138C30.0888 35.5673 29.5802 35.4864 29.0896 35.5852C28.599 35.684 28.1568 35.9562 27.8389 36.3551C27.521 36.7541 27.3472 37.255 27.3472 37.772C27.3472 38.289 27.521 38.79 27.8389 39.1889C28.1568 39.5879 28.599 39.8601 29.0896 39.9589C29.5802 40.0576 30.0888 39.9768 30.5281 39.7302C30.9675 39.4837 31.3103 39.0868 31.4977 38.6075H32.7308C35.3154 38.6075 37.452 36.6247 37.7977 34.0504C38.4292 33.877 38.9875 33.4925 39.3858 32.9568C39.7841 32.4211 40 31.7643 40 31.0885V27.7467C40 27.073 39.7852 26.418 39.3891 25.8832C38.9929 25.3484 38.4374 24.9635 37.8085 24.7881C37.396 20.8849 33.728 17.9999 29.5 17.9999C25.272 17.9999 21.6029 20.8849 21.1915 24.7881Z" fill="white"/>
</svg>
