<svg width="22" height="22" viewBox="0 0 22 22" fill="none" xmlns="http://www.w3.org/2000/svg">
<path d="M11 22C12.4448 22.0019 13.8758 21.7182 15.2106 21.1653C16.5454 20.6123 17.7578 19.8011 18.7781 18.7781C19.8011 17.7578 20.6123 16.5454 21.1653 15.2106C21.7182 13.8758 22.0019 12.4448 22 11C22.0018 9.55519 21.7181 8.12426 21.1652 6.78944C20.6123 5.45462 19.8011 4.24221 18.7781 3.22191C17.7578 2.19892 16.5454 1.38766 15.2106 0.834736C13.8758 0.281814 12.4448 -0.00186281 11 9.2051e-06C9.55519 -0.00183268 8.12426 0.281858 6.78944 0.834778C5.45462 1.3877 4.24221 2.19895 3.22191 3.22191C2.19895 4.24221 1.3877 5.45462 0.834778 6.78944C0.281858 8.12426 -0.00183268 9.55519 9.2051e-06 11C-0.00186281 12.4448 0.281814 13.8758 0.834736 15.2106C1.38766 16.5454 2.19892 17.7578 3.22191 18.7781C4.24221 19.8011 5.45462 20.6123 6.78944 21.1652C8.12426 21.7181 9.55519 22.0018 11 22Z" fill="#E03737"/>
<path fill-rule="evenodd" clip-rule="evenodd" d="M11.125 17.25C11.4234 17.25 11.7095 17.1315 11.9205 16.9205C12.1315 16.7095 12.25 16.4234 12.25 16.125C12.25 15.8266 12.1315 15.5405 11.9205 15.3295C11.7095 15.1185 11.4234 15 11.125 15C10.8266 15 10.5405 15.1185 10.3295 15.3295C10.1185 15.5405 10 15.8266 10 16.125C10 16.4234 10.1185 16.7095 10.3295 16.9205C10.5405 17.1315 10.8266 17.25 11.125 17.25Z" fill="white"/>
<path fill-rule="evenodd" clip-rule="evenodd" d="M11.125 5C11.6773 5 12.125 5.44772 12.125 6V13.2C12.125 13.7523 11.6773 14.2 11.125 14.2C10.5727 14.2 10.125 13.7523 10.125 13.2V6C10.125 5.44772 10.5727 5 11.125 5Z" fill="white"/>
</svg>
