<svg width="21" height="18" viewBox="0 0 21 18" fill="none" xmlns="http://www.w3.org/2000/svg">
<path opacity="0.3" d="M19.2234 9.88941L11.6018 17.5539C11.4627 17.6952 11.2971 17.8074 11.1146 17.884C10.9321 17.9606 10.7363 18 10.5386 18C10.3408 18 10.145 17.9606 9.96253 17.884C9.78002 17.8074 9.61442 17.6952 9.47531 17.5539L1.65613 9.6907C1.11341 9.14638 0.686794 8.49646 0.402376 7.78067C0.117958 7.06488 -0.018288 6.29828 0.00196869 5.52773C0.0222254 4.75718 0.198559 3.99889 0.520188 3.29921C0.841817 2.59954 1.30198 1.97319 1.87254 1.45846C4.06492 -0.538093 7.64048 -0.348846 9.83286 1.86534L10.5386 2.56556L11.4419 1.66663C11.9836 1.12386 12.6286 0.696601 13.3384 0.410443C14.0482 0.124284 14.8081 -0.0148876 15.5726 0.00126029C16.3406 0.0201009 17.0966 0.196891 17.7941 0.520737C18.4915 0.844582 19.1157 1.30862 19.628 1.88427C21.604 4.08899 21.4252 7.68469 19.2234 9.88941Z" fill="#08092B"/>
</svg>
