<svg width="19" height="20" viewBox="0 0 19 20" fill="none" xmlns="http://www.w3.org/2000/svg">
<path opacity="0.3" d="M3.16667 6.15385C3.16667 4.52174 3.83393 2.95649 5.02166 1.80242C6.20939 0.64835 7.8203 0 9.5 0C11.1797 0 12.7906 0.64835 13.9783 1.80242C15.1661 2.95649 15.8333 4.52174 15.8333 6.15385V9.14564C15.8333 9.86667 16.074 10.5682 16.5194 11.1456L18.6833 13.9487C18.8598 14.1773 18.9672 14.4491 18.9936 14.7336C19.02 15.0182 18.9643 15.3043 18.8328 15.5598C18.7013 15.8154 18.4992 16.0303 18.2491 16.1805C17.9989 16.3307 17.7107 16.4103 17.4167 16.4103H1.58333C1.28929 16.4103 1.00106 16.3307 0.750926 16.1805C0.500798 16.0303 0.298658 15.8154 0.167158 15.5598C0.0356573 15.3043 -0.0200083 15.0182 0.0063985 14.7336C0.0328053 14.4491 0.140241 14.1773 0.316667 13.9487L2.48056 11.1456C2.92592 10.5687 3.16667 9.86688 3.16667 9.14564V6.15385ZM9.5 20C8.70432 19.9999 7.92992 19.7503 7.29189 19.2883C6.65387 18.8264 6.18627 18.1767 5.95861 17.4359H13.0414C12.8137 18.1767 12.3461 18.8264 11.7081 19.2883C11.0701 19.7503 10.2957 19.9999 9.5 20Z" fill="#08092B"/>
</svg>
