<svg width="21" height="21" viewBox="0 0 21 21" fill="none" xmlns="http://www.w3.org/2000/svg">
<path opacity="0.5" d="M20.4316 19.3184L16.2031 15.0996C17.6955 13.3228 18.4443 11.0385 18.2934 8.72305C18.1425 6.40759 17.1036 4.23977 15.3932 2.67173C13.6828 1.10368 11.4331 0.256477 9.11329 0.306808C6.79346 0.35714 4.58262 1.30112 2.94187 2.94187C1.30112 4.58262 0.35714 6.79346 0.306808 9.11329C0.256477 11.4331 1.10368 13.6828 2.67173 15.3932C4.23977 17.1036 6.40759 18.1425 8.72305 18.2934C11.0385 18.4443 13.3228 17.6955 15.0996 16.2031L19.3184 20.4316C19.4677 20.576 19.6673 20.6567 19.875 20.6567C20.0827 20.6567 20.2823 20.576 20.4316 20.4316C20.5783 20.2835 20.6606 20.0835 20.6606 19.875C20.6606 19.6665 20.5783 19.4665 20.4316 19.3184V19.3184ZM1.90625 9.32812C1.90625 7.86022 2.34153 6.42527 3.15706 5.20475C3.97259 3.98423 5.13172 3.03295 6.4879 2.47121C7.84407 1.90946 9.33636 1.76248 10.7761 2.04886C12.2158 2.33523 13.5382 3.0421 14.5762 4.08007C15.6141 5.11803 16.321 6.44048 16.6074 7.88019C16.8938 9.31989 16.7468 10.8122 16.185 12.1684C15.6233 13.5245 14.672 14.6837 13.4515 15.4992C12.231 16.3147 10.796 16.75 9.32812 16.75C7.36051 16.7474 5.47423 15.9646 4.08292 14.5733C2.69161 13.182 1.90883 11.2957 1.90625 9.32812V9.32812Z" fill="#08092B"/>
</svg>
