<svg width="21" height="21" viewBox="0 0 21 21" fill="none" xmlns="http://www.w3.org/2000/svg">
<path opacity="0.3" d="M10.5 0C4.70143 0 0 4.70143 0 10.5C0 16.2986 4.70143 21 10.5 21C16.2986 21 21 16.2986 21 10.5C21 4.70143 16.2986 0 10.5 0ZM17.505 6.50786L9.63857 16.0414C9.42429 16.3029 9.10714 16.4614 8.76857 16.4786C8.74714 16.4807 8.73 16.4807 8.71071 16.4807C8.39143 16.4807 8.085 16.3543 7.85786 16.1271L3.555 11.8264C3.08357 11.355 3.08357 10.5921 3.555 10.1229C4.02429 9.65357 4.78714 9.65143 5.25857 10.1229L8.62071 13.485L15.645 4.97357C16.0736 4.45929 16.8321 4.39286 17.3421 4.81286C17.8564 5.235 17.9293 5.99571 17.505 6.50786Z" fill="#08092B"/>
</svg>
